<svg xmlns="http://www.w3.org/2000/svg" width="200" height="60" viewBox="0 0 200 60">
  <!-- Minimal Design -->
  <rect x="10" y="10" width="40" height="40" rx="8" fill="#F5F3FF" stroke="#7C3AED" stroke-width="2" />
  
  <!-- B2C Symbol -->
  <path d="M22,18 h10 c3,0 5,2 5,5 c0,2 -1,3.5 -2.5,4.5 c2,0.8 3.5,2.5 3.5,5 c0,3 -2.5,5.5 -5.5,5.5 h-10.5 v-20 z" fill="none" stroke="#7C3AED" stroke-width="2" stroke-linejoin="round" />
  <path d="M27,23 v4 h4 c1.1,0 2,-0.9 2,-2 c0,-1.1 -0.9,-2 -2,-2 h-4 z" fill="#7C3AED" />
  <path d="M27,32 v4 h4 c1.1,0 2,-0.9 2,-2 c0,-1.1 -0.9,-2 -2,-2 h-4 z" fill="#7C3AED" />
  
  <!-- Text -->
  <text x="65" y="35" font-family="Arial, sans-serif" font-weight="bold" font-size="24" fill="#7C3AED">BT2C</text>
  <text x="65" y="50" font-family="Arial, sans-serif" font-size="12" fill="#8B5CF6">bit2coin</text>
</svg>
