<svg xmlns="http://www.w3.org/2000/svg" width="200" height="60" viewBox="0 0 200 60">
  <!-- Background Circle -->
  <circle cx="30" cy="30" r="25" fill="#6366F1" />
  
  <!-- B Symbol -->
  <path d="M20 18h10c3.3 0 6 2.7 6 6s-2.7 6-6 6h-10v-12z" fill="#FFFFFF" />
  <path d="M20 30h12c3.3 0 6 2.7 6 6s-2.7 6-6 6h-12v-12z" fill="#FFFFFF" />
  <path d="M20 15v30h2v-12h10c2.21 0 4-1.79 4-4s-1.79-4-4-4h-10v-10h-2z" fill="#4F46E5" />
  <path d="M22 30v12h10c2.21 0 4-1.79 4-4s-1.79-4-4-4h-10z" fill="#4F46E5" />
  
  <!-- Text -->
  <text x="65" y="35" font-family="Arial, sans-serif" font-weight="bold" font-size="24" fill="#4F46E5">BT2C</text>
  <text x="65" y="50" font-family="Arial, sans-serif" font-size="12" fill="#6366F1">bit2coin</text>
</svg>
