<svg xmlns="http://www.w3.org/2000/svg" width="300" height="300" viewBox="0 0 300 300">
  <!-- Background - transparent -->
  
  <!-- Main B symbol with sketch-like effect -->
  <g transform="translate(50, 30)">
    <!-- Vertical line with sketch effect -->
    <path d="M30,10 
             C28,12 29,15 30,20
             C31,40 29,60 30,80
             C31,120 29,160 30,200
             C31,220 29,230 30,240"
          stroke="#6366F1" stroke-width="8" stroke-linecap="round" stroke-linejoin="round" fill="none"
          filter="url(#sketch)" />
    
    <!-- Top curve of B -->
    <path d="M30,40
             C40,38 60,35 80,40
             C100,45 110,60 105,80
             C100,95 80,100 60,95
             C50,93 40,90 30,85"
          stroke="#6366F1" stroke-width="8" stroke-linecap="round" stroke-linejoin="round" fill="none"
          filter="url(#sketch)" />
    
    <!-- Bottom curve of B with 2-like feature -->
    <path d="M30,110
             C50,108 80,105 100,110
             C120,115 130,130 125,150
             C120,165 100,170 80,165
             C70,163 50,160 40,155
             
             C60,170 80,180 100,190
             C120,200 140,210 160,215"
          stroke="#6366F1" stroke-width="8" stroke-linecap="round" stroke-linejoin="round" fill="none"
          filter="url(#sketch)" />
  </g>
  
  <!-- Sketch filter effect -->
  <filter id="sketch" x="-20%" y="-20%" width="140%" height="140%">
    <feTurbulence type="fractalNoise" baseFrequency="0.04" numOctaves="1" result="noise" />
    <feDisplacementMap in="SourceGraphic" in2="noise" scale="5" xChannelSelector="R" yChannelSelector="G" />
  </filter>
</svg>
